<?xml version="1.0" ?><svg id="Layer_1" style="enable-background:new 0 0 100 100;" version="1.1" viewBox="0 0 100 100" xml:space="preserve" xmlns="http://www.w3.org/2000/svg" xmlns:xlink="http://www.w3.org/1999/xlink"><path d="M82,35.5H12c-0.047,0-0.091,0.011-0.137,0.014c-0.074,0.005-0.148,0.009-0.221,0.022c-0.063,0.011-0.122,0.03-0.182,0.047  c-0.065,0.018-0.129,0.035-0.192,0.059c-0.062,0.025-0.12,0.056-0.179,0.086c-0.056,0.029-0.113,0.056-0.167,0.091  c-0.062,0.04-0.119,0.087-0.176,0.134c-0.036,0.029-0.076,0.052-0.11,0.084c-0.008,0.008-0.014,0.017-0.022,0.025  c-0.055,0.053-0.102,0.113-0.151,0.172c-0.036,0.043-0.075,0.084-0.106,0.129c-0.039,0.056-0.068,0.117-0.101,0.177  c-0.03,0.054-0.063,0.106-0.088,0.162c-0.025,0.058-0.04,0.12-0.06,0.18c-0.021,0.063-0.045,0.125-0.059,0.19  c-0.012,0.055-0.015,0.112-0.022,0.169c-0.01,0.075-0.021,0.149-0.023,0.225c0,0.012-0.003,0.022-0.003,0.034v25  c0,1.104,0.896,2,2,2h70c1.104,0,2-0.896,2-2v-25C84,36.396,83.104,35.5,82,35.5z M14,42.576L30.72,60.5H14V42.576z M80,60.5H36.19  l-19.589-21H80V60.5z"/><path d="M95,35.448h-4V30.5c0-1.104-0.896-2-2-2H5c-1.104,0-2,0.896-2,2v39c0,1.104,0.896,2,2,2h84c1.104,0,2-0.896,2-2v-4.948h4  c1.104,0,2-0.896,2-2V37.448C97,36.343,96.104,35.448,95,35.448z M87,67.5H7v-35h80v4.948v25.104V67.5z M93,60.552h-2V39.448h2  V60.552z"/></svg>